Coordinates
version=1
nRows=4
nColumns=107
inDegrees=yes

Units are S.I. units (second, meters, Newtons, ...)
If the header above contains a line with 'inDegrees', this indicates whether rotational values are in degrees (yes) or radians (no).

endheader
time	sternoclavicular_r2	sternoclavicular_r3	unrotscap_r3	unrotscap_r2	acromioclavicular_r2	acromioclavicular_r3	acromioclavicular_r1	unrothum_r1	unrothum_r3	unrothum_r2	elv_angle	shoulder_elv	shoulder1_r2	shoulder_rot	elbow_flexion	pro_sup	deviation	flexion	proximal_distal_r1	proximal_distal_r3	cmc_flexion	cmc_abduction	mp_flexion	ip_flexion	mcp2_flexion	mcp2_abduction	pm2_flexion	md2_flexion	mcp3_flexion	mcp3_abduction	pm3_flexion	md3_flexion	mcp4_flexion	mcp4_abduction	pm4_flexion	md4_flexion	mcp5_flexion	mcp5_abduction	pm5_flexion	md5_flexion	bicpt_tx	bicpt_ty	bicpt_tz	bicpt2_tx	bicpt2_ty	bicpt2_tz	ptpt_tx	ptpt_ty	ptpt_tz	FCUpt_tx	FCUpt_ty	FCUpt_tz	EDCpt_tx	EDCpt_ty	EDCpt_tz	APLpt_tx	APLpt_ty	APLpt_tz	FPLpt_tx	FPLpt_ty	FPLpt_tz	FPLpt2_tx	FPLpt2_ty	FPLpt2_tz	PEC1pt2_tx	PEC1pt2_ty	PEC1pt2_tz	PEC1pt3_tx	PEC1pt3_ty	PEC1pt3_tz	PEC2pt2_tx	PEC2pt2_ty	PEC2pt2_tz	PEC2pt3_tx	PEC2pt3_ty	PEC2pt3_tz	PEC3pt2_tx	PEC3pt2_ty	PEC3pt2_tz	PEC3pt3_tx	PEC3pt3_ty	PEC3pt3_tz	DELT2pt2a_tx	DELT2pt2a_ty	DELT2pt2a_tz	DELT2pt2_tx	DELT2pt2_ty	DELT2pt2_tz	LAT1pt2_tx	LAT1pt2_ty	LAT1pt2_tz	LAT1pt3_tx	LAT1pt3_ty	LAT1pt3_tz	LAT2pt2_tx	LAT2pt2_ty	LAT2pt2_tz	LAT2pt3_tx	LAT2pt3_ty	LAT2pt3_tz	LAT3pt2_tx	LAT3pt2_ty	LAT3pt2_tz	LAT3pt3_tx	LAT3pt3_ty	LAT3pt3_tz
      0.46666667	     -0.32704628	      0.13852137	     -0.13852137	      0.32704628	     -0.06622022	      0.53516852	      0.24055456	     -0.24055456	     -0.53516852	      0.06622022	     98.07304615	     77.43111370	     -1.71169756	    -16.54714172	     28.06034244	      8.70727422	     -0.04798363	     -0.52779489	     -0.06700509	     -0.26389744	     15.57451454	     12.38678770	     -4.62372428	     11.27964598	     19.09186617	     13.70910966	      5.72094036	    -25.56198225	    -10.04871520	      2.56394633	      6.87297639	     11.14598655	    -24.78582072	     -5.02903334	     -2.26333566	     20.65375539	    -45.04830390	    -14.45364576	     -6.20804259	      5.08838836	      0.00082815	     -0.03081614	     -0.00481804	      0.01539582	     -0.01782273	     -0.01012409	      0.00690663	     -0.06531601	     -0.00075142	      0.00478084	     -0.18400700	      0.00020444	     -0.00104487	      0.00025841	      0.00010571	      0.00030672	      0.00012269	      0.00061344	      0.00039260	      0.00117781	      0.00066252	      0.00002249	     -0.00025460	     -0.00030553	      0.00253802	      0.00890459	      0.00619449	     -0.00830234	      0.02004607	     -0.01901366	      0.00253802	      0.00890459	      0.00619449	      0.00055923	      0.01858348	     -0.00976493	      0.00399550	      0.00495173	      0.01608273	      0.00000000	      0.00802016	      0.00000000	     -0.00726993	     -0.03359653	     -0.00661430	      0.01170404	     -0.00032834	     -0.00219622	     -0.00090336	      0.01514210	     -0.00619449	      0.00249500	      0.02185280	     -0.01806728	     -0.00606544	      0.01312028	     -0.00554923	     -0.01264709	      0.02770316	     -0.03101549	     -0.02374556	      0.01466891	     -0.00744200	     -0.01574434	      0.03200489	     -0.03875861
      0.50000000	     -0.32202617	      0.13639509	     -0.13639509	      0.32202617	     -0.06520375	      0.52695376	      0.23686209	     -0.23686209	     -0.52695376	      0.06520375	     99.13661052	     76.24255753	     -1.73026026	    -22.56129963	     28.22927350	     14.59049101	     -0.06012637	     -0.49125830	     -0.08455874	     -0.24562915	     15.49872719	     12.27470029	     -4.58630549	     10.66659060	     18.99326726	     13.70737879	      5.64132912	    -25.47853084	     -9.95485175	      2.59755815	      6.83871038	     11.35511909	    -25.38800534	     -5.15408012	     -3.24048874	     20.76733493	    -44.99763019	    -14.44986734	     -6.39260601	      5.10093211	      0.00083374	     -0.03083551	     -0.00482116	      0.01578840	     -0.01786862	     -0.00972991	      0.00647193	     -0.06559710	     -0.00122534	      0.00532168	     -0.18393198	      0.00003707	     -0.00175085	      0.00044625	      0.00015387	      0.00030052	      0.00012021	      0.00060105	      0.00038467	      0.00115401	      0.00064913	      0.00002266	     -0.00025404	     -0.00030484	      0.00249906	      0.00876790	      0.00609941	     -0.00817490	      0.01973837	     -0.01872180	      0.00249906	      0.00876790	      0.00609941	      0.00055064	      0.01829823	     -0.00961504	      0.00395080	      0.00487572	      0.01597463	      0.00000000	      0.00777410	      0.00000000	     -0.00715834	     -0.03308083	     -0.00641007	      0.01521039	     -0.00051188	     -0.00423812	     -0.00088950	      0.01490967	     -0.00609941	      0.00245671	      0.02151736	     -0.01778995	     -0.00597234	      0.01291889	     -0.00546405	     -0.01245296	      0.02727792	     -0.03053941	     -0.02338107	      0.01444374	     -0.00732776	     -0.01550267	      0.03151362	     -0.03816367
      0.53333333	     -0.32238218	      0.13654587	     -0.13654587	      0.32238218	     -0.06527583	      0.52753632	      0.23712395	     -0.23712395	     -0.52753632	      0.06527583	     99.08480582	     76.32684571	     -1.72935610	    -22.15883396	     28.17578539	     14.05331919	     -0.05947252	     -0.48986019	     -0.08360759	     -0.24493010	     16.01907340	     12.27498700	     -5.73811070	     11.53611578	     19.13179200	     13.73329542	      5.69413537	    -25.04651448	    -10.21419592	      2.52285392	      7.01776933	     11.23268110	    -26.07184819	     -5.50278615	     -2.65890772	     20.30767834	    -45.15882393	    -14.45521928	     -6.15004536	      5.08684842	      0.00083197	     -0.03082938	     -0.00482017	      0.01575584	     -0.01785409	     -0.00976791	      0.00651162	     -0.06557143	     -0.00118207	      0.00527185	     -0.18393924	      0.00005127	     -0.00168639	      0.00042865	      0.00015025	      0.00030024	      0.00012010	      0.00060048	      0.00038431	      0.00115292	      0.00064852	      0.00002147	     -0.00025792	     -0.00030950	      0.00250183	      0.00877759	      0.00610615	     -0.00818394	      0.01976019	     -0.01874250	      0.00250183	      0.00877759	      0.00610615	      0.00055125	      0.01831846	     -0.00962567	      0.00395399	      0.00488111	      0.01598241	      0.00000000	      0.00779142	      0.00000000	     -0.00716625	     -0.03311740	     -0.00642445	      0.01499089	     -0.00049915	     -0.00408376	     -0.00089048	      0.01492615	     -0.00610615	      0.00245942	      0.02154115	     -0.01780961	     -0.00597894	      0.01293317	     -0.00547010	     -0.01246673	      0.02730807	     -0.03057317	     -0.02340692	      0.01445971	     -0.00733586	     -0.01551981	      0.03154846	     -0.03820586
      0.56666667	     -0.32281294	      0.13672832	     -0.13672832	      0.32281294	     -0.06536305	      0.52824121	      0.23744079	     -0.23744079	     -0.52824121	      0.06536305	     98.92100158	     76.42883256	     -1.72649718	    -21.54691779	     28.27737136	     13.73067184	     -0.05572846	     -0.48627603	     -0.07817263	     -0.24313801	     15.49276709	     11.60272838	     -4.13197277	      9.73346675	     18.60507707	     13.75150310	      5.55861939	    -25.69681959	    -10.23651515	      2.50407725	      6.63321114	     11.70853509	    -25.46850111	     -5.33276557	     -3.39413362	     21.79158264	    -45.02985408	    -14.46268323	     -6.14359621	      5.08283764	      0.00083533	     -0.03084102	     -0.00482204	      0.01573599	     -0.01788169	     -0.00979056	      0.00653546	     -0.06555602	     -0.00115608	      0.00524196	     -0.18394356	      0.00005990	     -0.00164768	      0.00041813	      0.00014801	      0.00029953	      0.00011981	      0.00059905	      0.00038339	      0.00115018	      0.00064698	      0.00002267	     -0.00025401	     -0.00030482	      0.00250517	      0.00878932	      0.00611431	     -0.00819488	      0.01978659	     -0.01876754	      0.00250517	      0.00878932	      0.00611431	      0.00055199	      0.01834294	     -0.00963853	      0.00395784	      0.00488763	      0.01599179	      0.00000000	      0.00781240	      0.00000000	     -0.00717582	     -0.03316165	     -0.00644187	      0.01465291	     -0.00047992	     -0.00385386	     -0.00089167	      0.01494610	     -0.00611431	      0.00246271	      0.02156993	     -0.01783341	     -0.00598693	      0.01295045	     -0.00547740	     -0.01248339	      0.02734456	     -0.03061402	     -0.02343820	      0.01447903	     -0.00734567	     -0.01554054	      0.03159061	     -0.03825691
